<?xml version="1.0" standalone="no"?>
<!DOCTYPE svg PUBLIC "-//W3C//DTD SVG 20010904//EN"
 "http://www.w3.org/TR/2001/REC-SVG-20010904/DTD/svg10.dtd">
<svg version="1.0" xmlns="http://www.w3.org/2000/svg"
 width="656.000000pt" height="656.000000pt" viewBox="0 0 656.000000 656.000000"
 preserveAspectRatio="xMidYMid meet">
<metadata>
Created by potrace 1.14, written by Peter Selinger 2001-2017
</metadata>
<g transform="translate(0.000000,656.000000) scale(0.100000,-0.100000)"
fill="#000000" stroke="none">
<path d="M3187 6534 c-1 -1 -54 -5 -117 -8 -63 -3 -133 -9 -155 -12 -65 -8
-168 -23 -191 -28 -12 -2 -38 -7 -59 -10 -20 -4 -40 -8 -44 -10 -3 -2 -22 -7
-41 -10 -19 -3 -71 -15 -115 -27 -44 -11 -87 -22 -95 -24 -39 -9 -254 -87
-330 -120 -47 -20 -89 -38 -95 -39 -5 -1 -53 -24 -105 -52 -52 -27 -99 -51
-105 -53 -5 -2 -12 -7 -15 -10 -3 -3 -21 -14 -40 -25 -19 -10 -51 -27 -70 -38
-49 -28 -249 -166 -286 -197 -17 -14 -46 -38 -65 -53 -76 -59 -119 -99 -239
-218 -137 -138 -196 -204 -277 -313 -30 -40 -60 -79 -66 -87 -37 -49 -77 -110
-77 -118 0 -6 -3 -12 -8 -14 -6 -2 -55 -80 -112 -178 -24 -40 -131 -262 -153
-315 -35 -87 -40 -99 -43 -110 -2 -5 -15 -44 -29 -85 -15 -41 -28 -82 -29 -90
-1 -8 -6 -24 -13 -35 -6 -11 -13 -36 -16 -55 -3 -19 -12 -57 -21 -85 -8 -27
-18 -63 -21 -80 -30 -163 -47 -266 -50 -295 -1 -19 -6 -66 -11 -105 -15 -134
-8 -673 10 -704 2 -3 6 -28 10 -56 6 -52 10 -74 27 -165 14 -77 14 -74 22 -87
5 -7 6 -13 4 -13 -3 0 -1 -17 4 -37 5 -21 12 -49 15 -63 3 -14 12 -44 20 -68
7 -23 14 -47 14 -52 0 -5 5 -21 12 -37 6 -15 12 -30 13 -33 6 -24 29 -91 41
-117 8 -17 14 -34 14 -38 0 -23 148 -338 161 -343 5 -2 9 -9 9 -15 0 -16 114
-206 178 -297 98 -140 202 -267 303 -372 31 -32 54 -60 51 -63 -3 -3 -1 -5 5
-5 5 0 36 -26 69 -58 32 -32 86 -80 119 -107 33 -28 62 -53 65 -56 23 -26 371
-269 385 -269 3 0 38 -20 80 -45 41 -24 75 -42 75 -39 0 3 13 -4 29 -15 16
-12 33 -21 38 -21 4 0 40 -15 78 -34 177 -87 547 -207 712 -231 16 -2 53 -8
83 -14 262 -47 677 -59 905 -25 17 2 50 6 75 9 25 2 54 6 65 8 11 3 40 8 65
12 53 9 54 9 145 29 217 49 441 126 645 223 52 25 104 49 115 54 11 5 27 13
35 18 8 6 56 33 105 62 50 28 109 64 132 80 23 16 44 29 47 29 3 0 14 7 23 15
10 8 64 49 121 91 56 42 102 80 102 85 0 5 4 9 9 9 15 0 56 37 200 180 162
161 217 224 321 367 43 59 87 119 98 133 10 14 29 45 43 70 13 25 27 47 30 50
14 12 159 287 159 302 0 6 6 19 13 27 13 16 29 54 89 216 28 76 44 121 53 155
3 8 16 53 29 100 26 90 73 309 82 383 2 25 7 55 9 67 27 142 27 621 -1 820 -5
35 -40 237 -48 275 -14 69 -59 233 -85 308 -16 48 -27 87 -25 87 2 0 -5 17
-16 37 -11 21 -20 42 -20 46 0 5 -7 25 -16 45 -9 21 -26 57 -36 82 -31 71
-121 252 -139 280 -9 14 -42 68 -75 120 -51 83 -81 127 -161 239 -10 14 -29
38 -43 55 -14 17 -32 39 -40 49 -54 68 -110 128 -225 242 -145 143 -180 175
-195 175 -6 0 -10 4 -10 9 0 13 -219 174 -342 251 -105 65 -330 183 -448 234
-90 38 -332 121 -410 140 -103 26 -112 28 -205 47 -197 41 -376 59 -609 63
-64 1 -118 1 -119 0z"/>
</g>
</svg>
